# xmcd
# 
# Track frame offsets:
#     182
#     18650
#     43815
#     66332
#     95632
#     118552
#     156970
#     184272
#     201077
#     222460
#     245282
# 
# Disc length: 3666
# 
# Revision: 17
# Processed by: cddbd v1.5.2PL0 Copyright (c) Steve Scherf et al.
# Submitted via: fre:ac v1.0.17
# 
DISCID=a40e500b
DTITLE=Dio - Lock Up the Wolves [Vertigo - 846 033-2]
DYEAR=1990
DGENRE=Metal
TTITLE0=Wild One
TTITLE1=Born on the Sun
TTITLE2=Hey Angel
TTITLE3=Between Two Hearts
TTITLE4=Night Music
TTITLE5=Lock Up the Wolves
TTITLE6=Evil on Queen Street
TTITLE7=Walk on Water
TTITLE8=Twisted
TTITLE9=Why Are They Watching Me
TTITLE10=My Eyes
EXTD=YEAR: 1990 ID3G: 17
EXTT0=
EXTT1=
EXTT2=
EXTT3=
EXTT4=
EXTT5=
EXTT6=
EXTT7=
EXTT8=
EXTT9=
EXTT10=
PLAYORDER=
